<svg width="71" height="56" viewBox="0 0 71 56" fill="none" xmlns="http://www.w3.org/2000/svg">
<path d="M71 13C71 15.7612 68.7958 18 66.0771 18C66.0466 18 66.0211 17.9842 65.9906 17.9837L59.773 52.7212C59.4313 54.6125 57.8067 56 55.8991 56H15.2116C13.309 56 11.677 54.6175 11.3374 52.7163L5.12101 17.9875C5.09024 17.9875 5.0644 18 4.92286 18C2.20421 18 0 15.7612 0 13C0 10.2388 2.31498 8 4.92286 8C7.53075 8 9.84573 10.2388 9.84573 13C9.84573 14.1248 9.41239 15.1113 8.79506 15.9463L19.826 24.9088C21.784 26.5 24.6873 25.8517 25.8085 23.5737L32.8974 9.17375C31.5063 8.2925 30.5218 6.7925 30.5218 5C30.5218 2.23875 32.8355 0 35.5554 0C38.2753 0 40.3675 2.23875 40.3675 5C40.3675 6.7925 39.3875 8.2925 37.9922 9.175L45.0811 23.575C46.2024 25.8525 49.1068 26.5 51.0636 24.91L62.0945 15.9475C61.585 15.1125 61.1543 14.0125 61.1543 13C61.1543 10.2375 63.3573 8 66.0771 8C68.797 8 71 10.2375 71 13Z" fill="#004034" style="mix-blend-mode:overlay"/>
</svg>
