<svg width="34" height="27" viewBox="0 0 34 27" fill="none" xmlns="http://www.w3.org/2000/svg">
<path d="M34 6.26786C34 7.59917 32.9445 8.67857 31.6426 8.67857C31.628 8.67857 31.6157 8.67094 31.6011 8.67071L28.6237 25.4191C28.46 26.331 27.6821 27 26.7686 27H7.28445C6.37331 27 5.59182 26.3334 5.42916 25.4168L2.45231 8.67254C2.43758 8.67254 2.4252 8.67857 2.35743 8.67857C1.05554 8.67857 0 7.59917 0 6.26786C0 4.93654 1.10858 3.85714 2.35743 3.85714C3.60627 3.85714 4.71485 4.93654 4.71485 6.26786C4.71485 6.81015 4.50734 7.28578 4.21172 7.68837L9.49413 12.0096C10.4318 12.7768 11.8221 12.4642 12.359 11.3659L15.7537 4.42306C15.0875 3.99817 14.6161 3.27496 14.6161 2.41071C14.6161 1.0794 15.724 0 17.0265 0C18.329 0 19.3309 1.0794 19.3309 2.41071C19.3309 3.27496 18.8616 3.99817 18.1934 4.42366L21.5881 11.3665C22.1251 12.4646 23.5159 12.7768 24.453 12.0102L29.7354 7.68897C29.4914 7.28638 29.2851 6.75603 29.2851 6.26786C29.2851 4.93594 30.3401 3.85714 31.6426 3.85714C32.9451 3.85714 34 4.93594 34 6.26786Z" fill="#004034" style="mix-blend-mode:overlay"/>
</svg>
