<svg width="34" height="30" viewBox="0 0 34 30" fill="none" xmlns="http://www.w3.org/2000/svg">
<path d="M33.7814 4.82695C33.6279 4.19473 33.0551 3.75 32.3997 3.75H26.4476C26.4619 3.02051 26.454 2.36133 26.4384 1.81523C26.4122 0.798633 25.5796 0 24.5522 0H9.45946C8.43202 0 7.59944 0.798633 7.56991 1.81523C7.50496 2.36133 7.5463 3.02051 7.56401 3.75H1.60959C0.954153 3.75 0.385932 4.19473 0.23093 4.82695C0.182983 5.02617 -0.927713 9.79687 2.18885 14.4082C4.39962 17.6789 8.1291 19.9764 13.2604 21.2871C14.3646 21.5687 15.1151 22.5797 15.1151 23.7111C15.1163 25.1074 13.9648 26.25 12.5536 26.25H12.282C10.7166 26.25 9.44824 27.5092 9.44824 29.0625C9.44824 29.5802 9.8712 30 10.3399 30H23.5135C24.0353 30 24.4051 29.5802 24.4051 29.0625C24.4051 27.5092 23.1368 26.25 21.5714 26.25H21.2972C19.8883 26.25 18.7369 25.1074 18.7369 23.71C18.7369 22.5785 19.4874 21.5672 20.5916 21.2859C25.7264 19.977 29.4547 17.6795 31.6631 14.407C34.9388 9.79688 33.8287 5.02617 33.7814 4.82695ZM4.57086 12.8789C2.92105 10.4648 2.77579 7.95117 2.85669 6.5625H7.60357C7.92001 10.0559 8.8052 14.2441 11.0089 17.6426C8.11316 16.5 5.9579 14.9063 4.57086 12.8789ZM29.4414 12.8789C28.0573 14.9063 25.902 16.4971 23.0051 17.6379C25.2076 14.2441 26.0933 10.0547 26.4063 6.5625H31.1532C31.1833 7.95117 31.0888 10.4707 29.4414 12.8789Z" fill="#004034" style="mix-blend-mode:overlay"/>
</svg>
