<svg width="71" height="64" viewBox="0 0 71 64" fill="none" xmlns="http://www.w3.org/2000/svg">
<path d="M70.5435 10.2975C70.2229 8.94875 69.0269 8 67.6582 8H55.2289C55.2587 6.44375 55.2422 5.0375 55.2096 3.8725C55.1549 1.70375 53.4163 0 51.2707 0H19.7536C17.608 0 15.8694 1.70375 15.8078 3.8725C15.6721 5.0375 15.7584 6.44375 15.7954 8H3.3612C1.9925 8 0.805917 8.94875 0.482237 10.2975C0.382112 10.7225 -1.93728 20.9 4.57084 30.7375C9.18743 37.715 16.9755 42.6162 27.6908 45.4125C29.9966 46.0131 31.5639 48.17 31.5639 50.5838C31.5663 53.5625 29.1619 56 26.2148 56H25.6476C22.3788 56 19.7301 58.6862 19.7301 62C19.7301 63.1045 20.6134 64 21.5921 64H49.1018C50.1913 64 50.9637 63.1045 50.9637 62C50.9637 58.6862 48.3151 56 45.0462 56H44.4736C41.5315 56 39.127 53.5625 39.127 50.5812C39.127 48.1675 40.6942 46.01 43.0001 45.41C53.7228 42.6175 61.5084 37.7163 66.12 30.735C72.9604 20.9 70.6422 10.7225 70.5435 10.2975ZM9.54502 27.475C6.09984 22.325 5.7965 16.9625 5.96543 14H15.878C16.5388 21.4525 18.3873 30.3875 22.9891 37.6375C16.9422 35.2 12.4415 31.8 9.54502 27.475ZM61.4805 27.475C58.5902 31.8 54.0895 35.1937 48.0401 37.6275C52.6394 30.3875 54.489 21.45 55.1426 14H65.0552C65.1181 16.9625 64.9208 22.3375 61.4805 27.475Z" fill="#004034" style="mix-blend-mode:overlay"/>
</svg>
