<svg width="71" height="62" viewBox="0 0 71 62" fill="none" xmlns="http://www.w3.org/2000/svg">
<path d="M17.75 57.4469V26.4469C17.75 24.0015 15.7628 22.1429 13.3125 22.1429H4.4375C1.98717 22.1429 0 24.126 0 26.4469V57.3223C0 59.7677 1.98717 61.6263 4.4375 61.6263H13.3125C15.767 61.8754 17.75 60.0071 17.75 57.4469ZM71 26.5853C71 22.9179 68.0213 19.9452 64.3438 19.9452H44.0283C47.1859 14.6987 48.8153 8.75196 48.8153 6.6567C48.8125 3.39339 46.2471 0 41.9482 0C33.1939 0 38.2929 10.5386 26.9439 19.5964L24.6836 21.3955C23.0473 22.7103 22.2152 24.6339 22.2014 26.5714C22.1981 26.5747 22.2014 26.5714 22.2014 26.5714L22.1875 48.7143C22.1875 50.804 23.1739 52.7733 24.85 54.0272L29.5843 57.5687C33.4199 60.45 38.0932 62 42.8912 62H51.0312C54.7088 62 57.6875 59.0287 57.6875 55.3599C57.6875 54.8568 57.6209 54.3714 57.5147 53.8999C60.1836 53.0321 62.125 50.5687 62.125 47.6071C62.125 46.3411 61.751 45.17 61.135 44.1639C64.2189 43.5937 66.5625 40.8951 66.5625 37.6567C66.5625 35.9268 65.884 34.3657 64.7986 33.1838C68.2543 32.9513 71 30.1004 71 26.5853Z" fill="#004034" style="mix-blend-mode:overlay"/>
</svg>
