<svg width="34" height="30" viewBox="0 0 34 30" fill="none" xmlns="http://www.w3.org/2000/svg">
<path d="M8.5 27.7969V12.7969C8.5 11.6136 7.5484 10.7143 6.375 10.7143H2.125C0.951602 10.7143 0 11.6739 0 12.7969V27.7366C0 28.9199 0.951602 29.8192 2.125 29.8192H6.375C7.55039 29.9397 8.5 29.0357 8.5 27.7969ZM34 12.8638C34 11.0893 32.5736 9.65089 30.8125 9.65089H21.084C22.5961 7.11228 23.3763 4.23482 23.3763 3.22098C23.375 1.64196 22.1465 0 20.0879 0C15.8957 0 18.3374 5.09933 12.9027 9.48214L11.8203 10.3527C11.0367 10.9888 10.6383 11.9196 10.6316 12.8571C10.6301 12.8587 10.6316 12.8571 10.6316 12.8571L10.625 23.5714C10.625 24.5826 11.0973 25.5355 11.9 26.1422L14.1671 27.8558C16.0039 29.25 18.2418 30 20.5395 30H24.4375C26.1986 30 27.625 28.5623 27.625 26.7871C27.625 26.5436 27.5931 26.3087 27.5423 26.0806C28.8203 25.6607 29.75 24.4687 29.75 23.0357C29.75 22.4231 29.5709 21.8565 29.2759 21.3696C30.7527 21.0937 31.875 19.7879 31.875 18.221C31.875 17.3839 31.5501 16.6286 31.0303 16.0567C32.6852 15.9442 34 14.5647 34 12.8638Z" fill="#004034" style="mix-blend-mode:overlay"/>
</svg>
