<svg width="151" height="56" viewBox="0 0 151 56" fill="none" xmlns="http://www.w3.org/2000/svg">
<g filter="url(#filter0_di)">
<path d="M35.6004 33.2926L28.9795 53.7371H22.7961L18.8877 41.2952L14.8043 53.7371H8.62091L2 33.2926H7.95007L12.0626 46.3479L16.3793 33.2926H21.6877L25.8003 46.4647L30.0878 33.2926H35.6004ZM52.3979 45.8514C52.3979 45.8904 52.3687 46.3479 52.3104 47.2241H40.8186C41.0519 48.0419 41.4992 48.6746 42.1602 49.1225C42.8409 49.5508 43.6867 49.7651 44.6978 49.7651C45.4561 49.7651 46.1076 49.658 46.652 49.4438C47.2159 49.2295 47.7797 48.8791 48.3436 48.3924L51.2603 51.4298C49.7243 53.1432 47.4784 54 44.5228 54C42.6755 54 41.0519 53.6495 39.6519 52.9486C38.2519 52.2476 37.1629 51.274 36.3852 50.0279C35.6268 48.7819 35.2477 47.3701 35.2477 45.793C35.2477 44.2352 35.617 42.8431 36.356 41.6165C37.1143 40.3704 38.1546 39.3968 39.4769 38.6958C40.7992 37.9949 42.2867 37.6444 43.9394 37.6444C45.5144 37.6444 46.9436 37.9755 48.227 38.6374C49.5103 39.28 50.5214 40.2244 51.2603 41.4704C52.0187 42.6971 52.3979 44.1574 52.3979 45.8514ZM43.9686 41.5873C43.113 41.5873 42.3936 41.8307 41.8102 42.3174C41.2463 42.8041 40.8867 43.4663 40.7311 44.3035H47.2061C47.0505 43.4663 46.6811 42.8041 46.0978 42.3174C45.5338 41.8307 44.8242 41.5873 43.9686 41.5873ZM71.1114 45.8514C71.1114 45.8904 71.0822 46.3479 71.0239 47.2241H59.5321C59.7654 48.0419 60.2127 48.6746 60.8738 49.1225C61.5544 49.5508 62.4003 49.7651 63.4113 49.7651C64.1697 49.7651 64.8211 49.658 65.3655 49.4438C65.9295 49.2295 66.4932 48.8791 67.0572 48.3924L69.9739 51.4298C68.4378 53.1432 66.192 54 63.2363 54C61.389 54 59.7654 53.6495 58.3654 52.9486C56.9654 52.2476 55.8764 51.274 55.0987 50.0279C54.3404 48.7819 53.9612 47.3701 53.9612 45.793C53.9612 44.2352 54.3306 42.8431 55.0696 41.6165C55.8279 40.3704 56.8681 39.3968 58.1904 38.6958C59.5127 37.9949 61.0002 37.6444 62.653 37.6444C64.228 37.6444 65.6572 37.9755 66.9405 38.6374C68.2239 39.28 69.2349 40.2244 69.9739 41.4704C70.7322 42.6971 71.1114 44.1574 71.1114 45.8514ZM62.6821 41.5873C61.8265 41.5873 61.1071 41.8307 60.5238 42.3174C59.9598 42.8041 59.6002 43.4663 59.4446 44.3035H65.9197C65.7641 43.4663 65.3947 42.8041 64.8113 42.3174C64.2474 41.8307 63.5378 41.5873 62.6821 41.5873ZM80.8415 48.1879L79.2082 49.8527V53.7371H73.6664V32.066H79.2082V43.4273L84.8666 37.9073H91.4291L84.8666 44.6831L91.9833 53.7371H85.2749L80.8415 48.1879ZM109.108 45.8514C109.108 45.8904 109.079 46.3479 109.021 47.2241H97.529C97.7623 48.0419 98.2096 48.6746 98.8707 49.1225C99.5513 49.5508 100.397 49.7651 101.408 49.7651C102.167 49.7651 102.818 49.658 103.362 49.4438C103.926 49.2295 104.49 48.8791 105.054 48.3924L107.971 51.4298C106.435 53.1432 104.189 54 101.233 54C99.3859 54 97.7623 53.6495 96.3623 52.9486C94.9623 52.2476 93.8733 51.274 93.0956 50.0279C92.3373 48.7819 91.9581 47.3701 91.9581 45.793C91.9581 44.2352 92.3275 42.8431 93.0665 41.6165C93.8248 40.3704 94.865 39.3968 96.1873 38.6958C97.5096 37.9949 98.9971 37.6444 100.65 37.6444C102.225 37.6444 103.654 37.9755 104.937 38.6374C106.221 39.28 107.232 40.2244 107.971 41.4704C108.729 42.6971 109.108 44.1574 109.108 45.8514ZM100.679 41.5873C99.8234 41.5873 99.104 41.8307 98.5207 42.3174C97.9567 42.8041 97.5971 43.4663 97.4415 44.3035H103.917C103.761 43.4663 103.392 42.8041 102.808 42.3174C102.244 41.8307 101.535 41.5873 100.679 41.5873ZM121.959 37.6444C123.923 37.6444 125.498 38.2285 126.684 39.3968C127.89 40.565 128.493 42.3272 128.493 44.6831V53.7371H122.951V45.5885C122.951 43.4273 122.086 42.3466 120.355 42.3466C119.402 42.3466 118.634 42.6581 118.051 43.2812C117.487 43.9044 117.205 44.839 117.205 46.0851V53.7371H111.663V37.9073H116.943V39.6304C117.565 38.9879 118.304 38.5012 119.159 38.1701C120.015 37.8196 120.948 37.6444 121.959 37.6444ZM149 32.066V53.7371H143.721V52.16C142.69 53.3867 141.144 54 139.083 54C137.644 54 136.332 53.6689 135.146 53.007C133.96 52.3254 133.016 51.3616 132.316 50.1155C131.636 48.8695 131.296 47.4286 131.296 45.793C131.296 44.1574 131.636 42.7263 132.316 41.4996C133.016 40.2536 133.96 39.2994 135.146 38.6374C136.332 37.9755 137.644 37.6444 139.083 37.6444C140.969 37.6444 142.428 38.1895 143.458 39.28V32.066H149ZM140.25 49.5898C141.203 49.5898 141.99 49.2588 142.612 48.5968C143.235 47.9153 143.546 46.9806 143.546 45.793C143.546 44.6247 143.235 43.7095 142.612 43.0476C142.01 42.3856 141.222 42.0546 140.25 42.0546C139.278 42.0546 138.481 42.3856 137.858 43.0476C137.236 43.7095 136.925 44.6247 136.925 45.793C136.925 46.9806 137.236 47.9153 137.858 48.5968C138.481 49.2588 139.278 49.5898 140.25 49.5898Z" fill="white"/>
</g>
<g filter="url(#filter1_di)">
<path d="M48.0006 2V22.4445H42.2255V14.4712H34.3504V22.4445H28.5753V2H34.3504V9.6813H42.2255V2H48.0006ZM58.5492 6.35176C61.1742 6.35176 63.177 6.95535 64.5576 8.16256C65.9383 9.35028 66.6285 11.1806 66.6285 13.6534V22.4445H61.4659V20.4001C60.6686 21.9382 59.1132 22.7074 56.7992 22.7074C55.5742 22.7074 54.5144 22.4931 53.62 22.0648C52.7256 21.6365 52.045 21.062 51.5783 20.3417C51.131 19.6017 50.9075 18.7645 50.9075 17.8299C50.9075 16.3306 51.481 15.1721 52.6283 14.3543C53.7756 13.5171 55.545 13.0985 57.9367 13.0985H61.0868C60.9895 11.4239 59.8715 10.5867 57.7325 10.5867C56.9742 10.5867 56.2061 10.7133 55.4284 10.9664C54.6506 11.2 53.9894 11.531 53.445 11.9594L51.5783 8.19177C52.4533 7.60764 53.5131 7.1598 54.7575 6.84827C56.0215 6.51726 57.2852 6.35176 58.5492 6.35176ZM58.3451 19.2026C58.9867 19.2026 59.5507 19.0468 60.0367 18.7353C60.5228 18.4238 60.8728 17.9661 61.0868 17.3626V15.9899H58.6951C57.0811 15.9899 56.2742 16.5254 56.2742 17.5962C56.2742 18.083 56.459 18.4724 56.8284 18.7645C57.1978 19.0566 57.7034 19.2026 58.3451 19.2026ZM80.0724 6.35176C81.5113 6.35176 82.8141 6.6925 83.9808 7.37399C85.1668 8.03599 86.1002 8.99008 86.7808 10.2362C87.4808 11.4629 87.8308 12.894 87.8308 14.5296C87.8308 16.1651 87.4808 17.6061 86.7808 18.8521C86.1002 20.0788 85.1668 21.0328 83.9808 21.7144C82.8141 22.3763 81.5113 22.7074 80.0724 22.7074C78.2251 22.7074 76.7571 22.1525 75.6682 21.0426V28.1106H70.1264V6.61462H75.4057V8.19177C76.4363 6.9651 77.9917 6.35176 80.0724 6.35176ZM78.9057 18.2972C79.878 18.2972 80.6751 17.9661 81.2974 17.3042C81.9197 16.6226 82.2307 15.6978 82.2307 14.5296C82.2307 13.3613 81.9197 12.4462 81.2974 11.7842C80.6751 11.1027 79.878 10.7619 78.9057 10.7619C77.9334 10.7619 77.1363 11.1027 76.514 11.7842C75.8917 12.4462 75.5807 13.3613 75.5807 14.5296C75.5807 15.6978 75.8917 16.6226 76.514 17.3042C77.1363 17.9661 77.9334 18.2972 78.9057 18.2972ZM100.353 6.35176C101.792 6.35176 103.094 6.6925 104.261 7.37399C105.447 8.03599 106.38 8.99008 107.061 10.2362C107.761 11.4629 108.111 12.894 108.111 14.5296C108.111 16.1651 107.761 17.6061 107.061 18.8521C106.38 20.0788 105.447 21.0328 104.261 21.7144C103.094 22.3763 101.792 22.7074 100.353 22.7074C98.5053 22.7074 97.0374 22.1525 95.9484 21.0426V28.1106H90.4067V6.61462H95.6859V8.19177C96.7165 6.9651 98.272 6.35176 100.353 6.35176ZM99.1859 18.2972C100.158 18.2972 100.955 17.9661 101.578 17.3042C102.2 16.6226 102.511 15.6978 102.511 14.5296C102.511 13.3613 102.2 12.4462 101.578 11.7842C100.955 11.1027 100.158 10.7619 99.1859 10.7619C98.2136 10.7619 97.4165 11.1027 96.7942 11.7842C96.1719 12.4462 95.8609 13.3613 95.8609 14.5296C95.8609 15.6978 96.1719 16.6226 96.7942 17.3042C97.4165 17.9661 98.2136 18.2972 99.1859 18.2972ZM126.914 6.61462L120.089 23.0871C119.292 25.0341 118.319 26.3972 117.172 27.176C116.025 27.9743 114.625 28.3734 112.972 28.3734C112.136 28.3734 111.29 28.2372 110.435 27.9645C109.599 27.7115 108.918 27.3706 108.393 26.9423L110.318 23.0579C110.629 23.3499 110.999 23.5738 111.426 23.7296C111.874 23.9048 112.321 23.9925 112.768 23.9925C113.293 23.9925 113.721 23.8854 114.051 23.6712C114.401 23.4569 114.693 23.1163 114.926 22.649L108.16 6.61462H113.847L117.726 16.282L121.635 6.61462H126.914Z" fill="white"/>
</g>
<defs>
<filter id="filter0_di" x="0" y="30.066" width="151" height="25.934" filterUnits="userSpaceOnUse" color-interpolation-filters="sRGB">
<feFlood flood-opacity="0" result="BackgroundImageFix"/>
<feColorMatrix in="SourceAlpha" type="matrix" values="0 0 0 0 0 0 0 0 0 0 0 0 0 0 0 0 0 0 127 0" result="hardAlpha"/>
<feOffset/>
<feGaussianBlur stdDeviation="1"/>
<feComposite in2="hardAlpha" operator="out"/>
<feColorMatrix type="matrix" values="0 0 0 0 0 0 0 0 0 0 0 0 0 0 0 0 0 0 0.25 0"/>
<feBlend mode="normal" in2="BackgroundImageFix" result="effect1_dropShadow"/>
<feBlend mode="normal" in="SourceGraphic" in2="effect1_dropShadow" result="shape"/>
<feColorMatrix in="SourceAlpha" type="matrix" values="0 0 0 0 0 0 0 0 0 0 0 0 0 0 0 0 0 0 127 0" result="hardAlpha"/>
<feOffset/>
<feGaussianBlur stdDeviation="5.5"/>
<feComposite in2="hardAlpha" operator="arithmetic" k2="-1" k3="1"/>
<feColorMatrix type="matrix" values="0 0 0 0 0 0 0 0 0 0 0 0 0 0 0 0 0 0 0.25 0"/>
<feBlend mode="normal" in2="shape" result="effect2_innerShadow"/>
</filter>
<filter id="filter1_di" x="26.5753" y="0" width="102.339" height="30.3734" filterUnits="userSpaceOnUse" color-interpolation-filters="sRGB">
<feFlood flood-opacity="0" result="BackgroundImageFix"/>
<feColorMatrix in="SourceAlpha" type="matrix" values="0 0 0 0 0 0 0 0 0 0 0 0 0 0 0 0 0 0 127 0" result="hardAlpha"/>
<feOffset/>
<feGaussianBlur stdDeviation="1"/>
<feComposite in2="hardAlpha" operator="out"/>
<feColorMatrix type="matrix" values="0 0 0 0 0 0 0 0 0 0 0 0 0 0 0 0 0 0 0.25 0"/>
<feBlend mode="normal" in2="BackgroundImageFix" result="effect1_dropShadow"/>
<feBlend mode="normal" in="SourceGraphic" in2="effect1_dropShadow" result="shape"/>
<feColorMatrix in="SourceAlpha" type="matrix" values="0 0 0 0 0 0 0 0 0 0 0 0 0 0 0 0 0 0 127 0" result="hardAlpha"/>
<feOffset/>
<feGaussianBlur stdDeviation="5.5"/>
<feComposite in2="hardAlpha" operator="arithmetic" k2="-1" k3="1"/>
<feColorMatrix type="matrix" values="0 0 0 0 0 0 0 0 0 0 0 0 0 0 0 0 0 0 0.25 0"/>
<feBlend mode="normal" in2="shape" result="effect2_innerShadow"/>
</filter>
</defs>
</svg>
