<svg width="71" height="57" viewBox="0 0 71 57" fill="none" xmlns="http://www.w3.org/2000/svg">
<path d="M30.4755 33.8438H19.2261C8.61013 33.8438 0 42.4828 0 53.1369C0 55.2744 1.7218 57 3.84521 57H45.8519C47.9819 57 49.7015 55.2744 49.7015 53.1369C49.7015 42.4828 41.0925 33.8438 30.4755 33.8438ZM24.8508 28.5C32.6943 28.5 39.0512 22.1198 39.0512 14.25C39.0512 6.38021 32.6943 0 24.8508 0C17.0072 0 10.6503 6.38021 10.6503 14.25C10.6503 22.1198 17.0072 28.5 24.8508 28.5ZM70.1479 14.9625C69.0715 13.9605 67.3844 14.0214 66.3848 15.1034L56.7274 25.5405L52.4684 21.2666C51.4283 20.2229 49.7437 20.2229 48.7031 21.2666C47.6624 22.3103 47.663 24.0008 48.7031 25.045L54.9158 31.2794C55.415 31.7842 56.0917 32.0625 56.8018 32.0625H56.8503C57.5748 32.0486 58.2615 31.7407 58.754 31.2084L70.2919 18.7396C71.2906 17.6566 71.2241 15.9645 70.1479 14.9625Z" fill="#004034" style="mix-blend-mode:overlay"/>
</svg>
