<svg width="34" height="27" viewBox="0 0 34 27" fill="none" xmlns="http://www.w3.org/2000/svg">
<path d="M14.5939 16.0312H9.20685C4.12316 16.0312 0 20.1234 0 25.1701C0 26.1826 0.824525 27 1.84137 27H21.9572C22.9773 27 23.8007 26.1826 23.8007 25.1701C23.8007 20.1234 19.6781 16.0312 14.5939 16.0312ZM11.9004 13.5C15.6564 13.5 18.7006 10.4778 18.7006 6.75C18.7006 3.02221 15.6564 0 11.9004 0C8.14431 0 5.10016 3.02221 5.10016 6.75C5.10016 10.4778 8.14431 13.5 11.9004 13.5ZM33.592 7.0875C33.0765 6.61289 32.2686 6.64174 31.7899 7.15426L27.1652 12.0981L25.1257 10.0736C24.6277 9.57925 23.8209 9.57925 23.3226 10.0736C22.8243 10.568 22.8245 11.3688 23.3226 11.8634L26.2977 14.8166C26.5368 15.0557 26.8608 15.1875 27.2008 15.1875H27.2241C27.5711 15.1809 27.8999 15.035 28.1357 14.7829L33.6609 8.87667C34.1392 8.36367 34.1073 7.56211 33.592 7.0875Z" fill="#004034" style="mix-blend-mode:overlay"/>
</svg>
