<svg width="22" height="17" viewBox="0 0 22 17" fill="none" xmlns="http://www.w3.org/2000/svg">
<path d="M18.6526 1.43577C18.6465 1.42375 18.6363 1.41433 18.624 1.40921C17.1976 0.745469 15.6924 0.272172 14.1459 0.00116092C14.1319 -0.00148816 14.1174 0.000422921 14.1044 0.00662237C14.0915 0.0128218 14.0809 0.022994 14.074 0.0356923C13.869 0.41299 13.683 0.800538 13.5165 1.19686C11.8495 0.940217 10.1539 0.940217 8.48694 1.19686C8.31938 0.799532 8.13033 0.411888 7.92066 0.0356923C7.91347 0.02327 7.90275 0.013332 7.88991 0.00717287C7.87707 0.00101369 7.8627 -0.00108127 7.84867 0.00116092C6.30207 0.271603 4.79673 0.744935 3.37053 1.40924C3.35833 1.41449 3.34802 1.42346 3.34105 1.4349C0.488935 5.75465 -0.292367 9.9682 0.0909135 14.1296C0.0919917 14.1398 0.0950812 14.1496 0.0999984 14.1586C0.104915 14.1676 0.11156 14.1754 0.119536 14.1817C1.7803 15.4289 3.63788 16.3808 5.61301 16.997C5.62692 17.0012 5.64177 17.001 5.65557 16.9964C5.66937 16.9918 5.68145 16.9831 5.69019 16.9713C6.11441 16.3859 6.4903 15.766 6.81403 15.1179C6.81848 15.109 6.82102 15.0993 6.82148 15.0893C6.82195 15.0794 6.82032 15.0694 6.81672 15.0601C6.81312 15.0509 6.80762 15.0425 6.80059 15.0355C6.79355 15.0285 6.78514 15.0231 6.77591 15.0197C6.18316 14.7897 5.60931 14.5124 5.05975 14.1905C5.04977 14.1845 5.04138 14.1762 5.03534 14.1661C5.02929 14.1561 5.02577 14.1448 5.02509 14.133C5.0244 14.1213 5.02658 14.1096 5.03142 14.0989C5.03625 14.0883 5.04361 14.079 5.05283 14.0719C5.16814 13.9842 5.28353 13.8931 5.39364 13.801C5.40343 13.7929 5.41526 13.7876 5.42782 13.7859C5.44038 13.7842 5.45317 13.7861 5.46473 13.7913C9.06515 15.4578 12.9631 15.4578 16.5209 13.7913C16.5325 13.7857 16.5454 13.7836 16.5581 13.7852C16.5709 13.7867 16.5829 13.7919 16.5929 13.8002C16.703 13.8922 16.8184 13.9842 16.9346 14.0719C16.9438 14.0789 16.9512 14.0881 16.9562 14.0988C16.9611 14.1094 16.9633 14.1211 16.9627 14.1328C16.9621 14.1445 16.9587 14.1559 16.9527 14.166C16.9468 14.176 16.9384 14.1845 16.9285 14.1905C16.3802 14.5151 15.8058 14.7922 15.2115 15.0188C15.2023 15.0224 15.1939 15.0279 15.1869 15.035C15.1799 15.0421 15.1745 15.0505 15.171 15.0599C15.1674 15.0692 15.1659 15.0793 15.1664 15.0892C15.167 15.0992 15.1696 15.109 15.1741 15.1179C15.5033 15.7624 15.8786 16.3815 16.2971 16.9703C16.3056 16.9824 16.3176 16.9914 16.3314 16.9962C16.3453 17.001 16.3603 17.0012 16.3743 16.9968C18.3529 16.3828 20.2138 15.4308 21.8766 14.1817C21.8847 14.1758 21.8914 14.1681 21.8964 14.1592C21.9013 14.1504 21.9043 14.1406 21.9052 14.1304C22.3641 9.31946 21.137 5.14045 18.6526 1.43577ZM7.35172 11.5957C6.26773 11.5957 5.37456 10.5868 5.37456 9.34781C5.37456 8.10878 6.25041 7.09982 7.35172 7.09982C8.46164 7.09982 9.34617 8.11755 9.32885 9.34773C9.32885 10.5868 8.45296 11.5957 7.35172 11.5957ZM14.6619 11.5957C13.5779 11.5957 12.6848 10.5868 12.6848 9.34781C12.6848 8.10878 13.5606 7.09982 14.6619 7.09982C15.7719 7.09982 16.6564 8.11755 16.639 9.34773C16.639 10.5868 15.7719 11.5957 14.6619 11.5957Z" fill="white"/>
</svg>
