<svg width="25" height="20" viewBox="0 0 25 20" fill="none" xmlns="http://www.w3.org/2000/svg">
<path d="M21.1961 1.68914C21.1892 1.675 21.1777 1.66392 21.1636 1.65789C19.5427 0.877022 17.8322 0.320203 16.0749 0.00136579C16.059 -0.00175077 16.0425 0.000497554 16.0278 0.00779102C16.0131 0.0150845 16.001 0.0270518 15.9932 0.0419909C15.7602 0.485871 15.5488 0.941809 15.3597 1.40807C13.4654 1.10614 11.5385 1.10614 9.64425 1.40807C9.45384 0.940625 9.23902 0.484574 9.00075 0.0419909C8.99258 0.0273764 8.9804 0.0156848 8.96581 0.00843867C8.95122 0.00119258 8.93489 -0.00127209 8.91895 0.00136579C7.16145 0.319533 5.45083 0.876394 3.83015 1.65793C3.81628 1.66411 3.80457 1.67465 3.79665 1.68811C0.555608 6.77018 -0.332235 11.7273 0.103311 16.623C0.104536 16.635 0.108047 16.6466 0.113635 16.6572C0.119222 16.6677 0.126772 16.677 0.135836 16.6844C2.02306 18.1516 4.13395 19.2716 6.37842 19.9964C6.39422 20.0014 6.4111 20.0012 6.42678 19.9958C6.44246 19.9904 6.4562 19.9801 6.46613 19.9662C6.94819 19.2775 7.37534 18.5482 7.74322 17.7858C7.74827 17.7753 7.75116 17.7639 7.75169 17.7521C7.75221 17.7404 7.75037 17.7287 7.74628 17.7178C7.74218 17.7069 7.73593 17.697 7.72794 17.6888C7.71994 17.6806 7.71038 17.6743 7.69989 17.6703C7.02632 17.3996 6.37422 17.0734 5.74972 16.6947C5.73837 16.6877 5.72884 16.6778 5.72197 16.6661C5.71511 16.6543 5.71111 16.6409 5.71033 16.6271C5.70955 16.6133 5.71202 16.5995 5.71752 16.587C5.72301 16.5744 5.73137 16.5635 5.74185 16.5551C5.87289 16.452 6.00401 16.3448 6.12914 16.2365C6.14026 16.2269 6.15371 16.2207 6.16798 16.2187C6.18225 16.2167 6.19678 16.2189 6.20992 16.2251C10.3013 18.1857 14.7308 18.1857 18.7737 16.2251C18.7869 16.2185 18.8016 16.216 18.8161 16.2178C18.8306 16.2197 18.8442 16.2258 18.8555 16.2355C18.9807 16.3438 19.1118 16.452 19.2438 16.5551C19.2543 16.5634 19.2628 16.5743 19.2684 16.5868C19.2739 16.5993 19.2765 16.613 19.2758 16.6268C19.2751 16.6406 19.2712 16.654 19.2645 16.6659C19.2577 16.6777 19.2482 16.6876 19.2369 16.6947C18.6138 17.0766 17.9611 17.4026 17.2858 17.6692C17.2753 17.6734 17.2658 17.6799 17.2579 17.6882C17.2499 17.6965 17.2437 17.7065 17.2397 17.7175C17.2357 17.7285 17.2339 17.7403 17.2346 17.7521C17.2352 17.7638 17.2382 17.7753 17.2433 17.7858C17.6173 18.544 18.0438 19.2724 18.5194 19.965C18.5291 19.9792 18.5427 19.9899 18.5585 19.9955C18.5742 20.0011 18.5912 20.0014 18.6071 19.9963C20.8556 19.2739 22.9702 18.1538 24.8598 16.6844C24.869 16.6774 24.8766 16.6683 24.8822 16.6579C24.8879 16.6475 24.8913 16.636 24.8923 16.624C25.4137 10.9641 24.0193 6.04759 21.1961 1.68914ZM8.35423 13.642C7.12243 13.642 6.10746 12.4551 6.10746 10.9974C6.10746 9.53974 7.10274 8.35273 8.35423 8.35273C9.6155 8.35273 10.6207 9.55005 10.601 10.9973C10.601 12.4551 9.60564 13.642 8.35423 13.642ZM16.6612 13.642C15.4295 13.642 14.4145 12.4551 14.4145 10.9974C14.4145 9.53974 15.4098 8.35273 16.6612 8.35273C17.9226 8.35273 18.9277 9.55005 18.908 10.9973C18.908 12.4551 17.9226 13.642 16.6612 13.642Z" fill="#C8C8C8"/>
</svg>
