<svg width="40" height="31" viewBox="0 0 40 31" fill="none" xmlns="http://www.w3.org/2000/svg">
<path d="M33.9138 2.61816C33.9027 2.59625 33.8842 2.57908 33.8618 2.56973C31.2684 1.35938 28.5316 0.496314 25.7199 0.00211698C25.6943 -0.0027137 25.6679 0.000771209 25.6445 0.0120761C25.621 0.023381 25.6016 0.0419302 25.5891 0.0650859C25.2164 0.7531 24.8781 1.4598 24.5754 2.1825C21.5446 1.71451 18.4617 1.71451 15.4308 2.1825C15.1261 1.45797 14.7824 0.751089 14.4012 0.0650859C14.3881 0.0424334 14.3686 0.0243114 14.3453 0.0130799C14.322 0.0018485 14.2958 -0.00197173 14.2703 0.00211698C11.4583 0.495277 8.72133 1.35841 6.12824 2.5698C6.10605 2.57937 6.08731 2.59571 6.07464 2.61657C0.888973 10.4938 -0.531576 18.1773 0.165297 25.7657C0.167258 25.7843 0.172875 25.8023 0.181815 25.8186C0.190755 25.835 0.202836 25.8493 0.217338 25.8608C3.2369 28.135 6.61432 29.8709 10.2055 30.9945C10.2308 31.0022 10.2578 31.0018 10.2829 30.9935C10.3079 30.9851 10.3299 30.9691 10.3458 30.9477C11.1171 29.8802 11.8005 28.7498 12.3891 27.568C12.3972 27.5518 12.4019 27.534 12.4027 27.5158C12.4035 27.4977 12.4006 27.4795 12.394 27.4626C12.3875 27.4457 12.3775 27.4304 12.3647 27.4177C12.3519 27.405 12.3366 27.3952 12.3198 27.3889C11.2421 26.9694 10.1988 26.4638 9.19955 25.8767C9.1814 25.8659 9.16615 25.8507 9.15516 25.8324C9.14417 25.8141 9.13777 25.7934 9.13652 25.772C9.13528 25.7506 9.13923 25.7293 9.14803 25.7098C9.15682 25.6903 9.1702 25.6734 9.18696 25.6604C9.39662 25.5007 9.60642 25.3344 9.80662 25.1666C9.82441 25.1517 9.84593 25.1421 9.86877 25.139C9.8916 25.1359 9.91485 25.1393 9.93588 25.1489C16.4821 28.1878 23.5693 28.1878 30.038 25.1489C30.0591 25.1387 30.0826 25.1348 30.1057 25.1376C30.1289 25.1405 30.1508 25.15 30.1689 25.165C30.3691 25.3329 30.5789 25.5007 30.7901 25.6604C30.807 25.6733 30.8204 25.6901 30.8294 25.7095C30.8383 25.7289 30.8424 25.7502 30.8413 25.7716C30.8402 25.793 30.834 25.8137 30.8231 25.8321C30.8123 25.8504 30.7971 25.8658 30.7791 25.8767C29.7821 26.4688 28.7378 26.9741 27.6573 27.3873C27.6405 27.3938 27.6253 27.4038 27.6126 27.4167C27.5999 27.4296 27.59 27.4451 27.5835 27.4622C27.5771 27.4792 27.5743 27.4975 27.5753 27.5157C27.5763 27.5339 27.581 27.5517 27.5893 27.568C28.1877 28.7432 28.8702 29.8722 29.631 30.9458C29.6465 30.9678 29.6683 30.9844 29.6935 30.9931C29.7187 31.0017 29.746 31.0022 29.7714 30.9942C33.369 29.8745 36.7523 28.1384 39.7756 25.8608C39.7904 25.8499 39.8026 25.8359 39.8116 25.8198C39.8206 25.8036 39.8261 25.7857 39.8277 25.7673C40.662 16.9943 38.4309 9.37376 33.9138 2.61816ZM13.3668 21.1451C11.3959 21.1451 9.77193 19.3054 9.77193 17.046C9.77193 14.7866 11.3644 12.9467 13.3668 12.9467C15.3848 12.9467 16.993 14.8026 16.9615 17.0459C16.9615 19.3054 15.369 21.1451 13.3668 21.1451ZM26.658 21.1451C24.6871 21.1451 23.0632 19.3054 23.0632 17.046C23.0632 14.7866 24.6557 12.9467 26.658 12.9467C28.6761 12.9467 30.2843 14.8026 30.2528 17.0459C30.2528 19.3054 28.6761 21.1451 26.658 21.1451Z" fill="#C8C8C8"/>
</svg>
