<svg width="30" height="31" viewBox="0 0 30 31" fill="none" xmlns="http://www.w3.org/2000/svg">
<path d="M15.0033 7.55199C10.7468 7.55199 7.31344 11.1006 7.31344 15.5C7.31344 19.8994 10.7468 23.448 15.0033 23.448C19.2599 23.448 22.6933 19.8994 22.6933 15.5C22.6933 11.1006 19.2599 7.55199 15.0033 7.55199ZM15.0033 20.6672C12.2527 20.6672 10.0039 18.3499 10.0039 15.5C10.0039 12.6501 12.246 10.3328 15.0033 10.3328C17.7607 10.3328 20.0028 12.6501 20.0028 15.5C20.0028 18.3499 17.754 20.6672 15.0033 20.6672V20.6672ZM24.8015 7.22688C24.8015 8.25756 23.9983 9.08072 23.0078 9.08072C22.0106 9.08072 21.2142 8.25064 21.2142 7.22688C21.2142 6.20311 22.0173 5.37303 23.0078 5.37303C23.9983 5.37303 24.8015 6.20311 24.8015 7.22688ZM29.8946 9.10839C29.7808 6.62507 29.232 4.42536 27.4718 2.61302C25.7184 0.80068 23.5901 0.23346 21.1874 0.108948C18.7111 -0.036316 11.2889 -0.036316 8.81261 0.108948C6.41662 0.226542 4.28834 0.793763 2.52817 2.6061C0.767987 4.41844 0.225878 6.61815 0.10541 9.10147C-0.0351366 11.6609 -0.0351366 19.3322 0.10541 21.8916C0.219186 24.3749 0.767987 26.5746 2.52817 28.387C4.28834 30.1993 6.40993 30.7665 8.81261 30.8911C11.2889 31.0363 18.7111 31.0363 21.1874 30.8911C23.5901 30.7735 25.7184 30.2062 27.4718 28.387C29.2253 26.5746 29.7741 24.3749 29.8946 21.8916C30.0351 19.3322 30.0351 11.6678 29.8946 9.10839V9.10839ZM26.6955 24.6378C26.1735 25.9936 25.1629 27.0381 23.8444 27.5846C21.8701 28.3939 17.1852 28.2071 15.0033 28.2071C12.8215 28.2071 8.12995 28.387 6.1623 27.5846C4.85053 27.045 3.83993 26.0005 3.31121 24.6378C2.52817 22.5972 2.70887 17.755 2.70887 15.5C2.70887 13.245 2.53486 8.39591 3.31121 6.36221C3.83324 5.00642 4.84384 3.9619 6.1623 3.41543C8.13664 2.6061 12.8215 2.79287 15.0033 2.79287C17.1852 2.79287 21.8767 2.61302 23.8444 3.41543C25.1562 3.95498 26.1668 4.9995 26.6955 6.36221C27.4785 8.40282 27.2978 13.245 27.2978 15.5C27.2978 17.755 27.4785 22.6041 26.6955 24.6378Z" fill="#C8C8C8"/>
</svg>
