<svg width="247" height="90" viewBox="0 0 247 90" fill="none" xmlns="http://www.w3.org/2000/svg">
<g filter="url(#filter0_di_119:29)">
<path d="M57.5435 53.7532L46.5987 87.5653H36.3772L29.9164 66.9882L23.1663 87.5653H12.9448L2 53.7532H11.8358L18.6341 75.3446L25.7699 53.7532H34.545L41.3433 75.5379L48.4309 53.7532H57.5435ZM85.3107 74.5235C85.3107 74.588 85.2625 75.3446 85.1661 76.7937H66.1695C66.5552 78.1462 67.2946 79.1927 68.3873 79.9334C69.5125 80.6418 70.9107 80.9961 72.582 80.9961C73.8356 80.9961 74.9125 80.8191 75.8124 80.4648C76.7447 80.1104 77.6766 79.5308 78.6089 78.7258L83.4304 83.7494C80.8912 86.583 77.1786 88 72.2927 88C69.239 88 66.5552 87.4204 64.2409 86.2611C61.9265 85.1018 60.1264 83.4916 58.8408 81.4308C57.5872 79.37 56.9604 77.0352 56.9604 74.4269C56.9604 71.8506 57.571 69.5483 58.7926 67.5196C60.0462 65.4587 61.7657 63.8485 63.9516 62.6893C66.1374 61.53 68.5964 60.9504 71.3284 60.9504C73.932 60.9504 76.2946 61.4979 78.416 62.5927C80.5375 63.6553 82.2088 65.2172 83.4304 67.278C84.6839 69.3068 85.3107 71.7219 85.3107 74.5235ZM71.3767 67.4713C69.9622 67.4713 68.7731 67.8739 67.8088 68.6788C66.8765 69.4838 66.2821 70.5789 66.0248 71.9634H76.7285C76.4712 70.5789 75.8606 69.4838 74.8963 68.6788C73.9641 67.8739 72.7911 67.4713 71.3767 67.4713ZM116.245 74.5235C116.245 74.588 116.197 75.3446 116.101 76.7937H97.1041C97.4898 78.1462 98.2292 79.1927 99.322 79.9334C100.447 80.6418 101.845 80.9961 103.517 80.9961C104.77 80.9961 105.847 80.8191 106.747 80.4648C107.679 80.1104 108.611 79.5308 109.544 78.7258L114.365 83.7494C111.826 86.583 108.113 88 103.227 88C100.174 88 97.4898 87.4204 95.1755 86.2611C92.8612 85.1018 91.0611 83.4916 89.7754 81.4308C88.5219 79.37 87.8951 77.0352 87.8951 74.4269C87.8951 71.8506 88.5057 69.5483 89.7272 67.5196C90.9808 65.4587 92.7004 63.8485 94.8862 62.6893C97.0721 61.53 99.531 60.9504 102.263 60.9504C104.867 60.9504 107.229 61.4979 109.351 62.5927C111.472 63.6553 113.143 65.2172 114.365 67.278C115.619 69.3068 116.245 71.7219 116.245 74.5235ZM102.311 67.4713C100.897 67.4713 99.7077 67.8739 98.7434 68.6788C97.8111 69.4838 97.2167 70.5789 96.9594 71.9634H107.663C107.406 70.5789 106.795 69.4838 105.831 68.6788C104.899 67.8739 103.726 67.4713 102.311 67.4713ZM132.33 78.3877L129.63 81.141V87.5653H120.469V51.7245H129.63V70.5143L138.983 61.3851H149.832L138.983 72.5914L150.748 87.5653H139.658L132.33 78.3877ZM179.057 74.5235C179.057 74.588 179.008 75.3446 178.912 76.7937H159.915C160.301 78.1462 161.04 79.1927 162.133 79.9334C163.258 80.6418 164.657 80.9961 166.328 80.9961C167.581 80.9961 168.658 80.8191 169.558 80.4648C170.491 80.1104 171.422 79.5308 172.355 78.7258L177.176 83.7494C174.637 86.583 170.924 88 166.039 88C162.985 88 160.301 87.4204 157.987 86.2611C155.672 85.1018 153.872 83.4916 152.587 81.4308C151.333 79.37 150.706 77.0352 150.706 74.4269C150.706 71.8506 151.317 69.5483 152.538 67.5196C153.792 65.4587 155.512 63.8485 157.697 62.6893C159.883 61.53 162.342 60.9504 165.074 60.9504C167.678 60.9504 170.04 61.4979 172.162 62.5927C174.283 63.6553 175.955 65.2172 177.176 67.278C178.43 69.3068 179.057 71.7219 179.057 74.5235ZM165.122 67.4713C163.708 67.4713 162.519 67.8739 161.555 68.6788C160.622 69.4838 160.028 70.5789 159.771 71.9634H170.474C170.217 70.5789 169.606 69.4838 168.642 68.6788C167.71 67.8739 166.537 67.4713 165.122 67.4713ZM200.3 60.9504C203.547 60.9504 206.15 61.9164 208.111 63.8485C210.104 65.7807 211.1 68.695 211.1 72.5914V87.5653H201.939V74.0888C201.939 70.5143 200.509 68.7271 197.648 68.7271C196.073 68.7271 194.804 69.2423 193.839 70.2728C192.907 71.3034 192.441 72.8491 192.441 74.9099V87.5653H183.28V61.3851H192.007V64.235C193.036 63.1723 194.257 62.3674 195.671 61.8198C197.086 61.2402 198.629 60.9504 200.3 60.9504ZM245 51.7245V87.5653H236.273V84.9569C234.57 86.9857 232.014 88 228.607 88C226.229 88 224.059 87.4525 222.098 86.3577C220.137 85.2305 218.578 83.6365 217.421 81.5757C216.296 79.5149 215.734 77.1318 215.734 74.4269C215.734 71.7219 216.296 69.3551 217.421 67.3264C218.578 65.2655 220.137 63.6874 222.098 62.5927C224.059 61.4979 226.229 60.9504 228.607 60.9504C231.725 60.9504 234.136 61.8519 235.839 63.6553V51.7245H245ZM230.536 80.7063C232.111 80.7063 233.413 80.1587 234.441 79.064C235.47 77.9368 235.984 76.3911 235.984 74.4269C235.984 72.4948 235.47 70.9812 234.441 69.8864C233.445 68.7917 232.143 68.2441 230.536 68.2441C228.929 68.2441 227.611 68.7917 226.582 69.8864C225.554 70.9812 225.039 72.4948 225.039 74.4269C225.039 76.3911 225.554 77.9368 226.582 79.064C227.611 80.1587 228.929 80.7063 230.536 80.7063Z" fill="white"/>
</g>
<g filter="url(#filter1_di_119:29)">
<path d="M78.0417 2V35.8121H68.4952V22.6254H55.4772V35.8121H45.9307V2H55.4772V14.7037H68.4952V2H78.0417ZM95.4793 9.19714C99.8186 9.19714 103.129 10.1954 105.412 12.1919C107.694 14.1562 108.835 17.1833 108.835 21.2729V35.8121H100.301V32.4309C98.9828 34.9747 96.4116 36.2468 92.5864 36.2468C90.5614 36.2468 88.8095 35.8925 87.331 35.1842C85.8525 34.4758 84.7274 33.5256 83.956 32.3343C83.2166 31.1105 82.847 29.7259 82.847 28.1802C82.847 25.7006 83.7951 23.7846 85.6917 22.4322C87.5883 21.0475 90.5132 20.3551 94.4668 20.3551H99.674C99.5132 17.5858 97.6652 16.2011 94.1293 16.2011C92.8757 16.2011 91.6059 16.4104 90.3203 16.829C89.0347 17.2154 87.9416 17.7629 87.0417 18.4713L83.956 12.2402C85.4024 11.2742 87.1543 10.5335 89.2114 10.0183C91.3008 9.47085 93.3899 9.19714 95.4793 9.19714ZM95.1418 30.4505C96.2025 30.4505 97.1348 30.1927 97.9383 29.6776C98.7417 29.1625 99.3203 28.4055 99.674 27.4074V25.1371H95.7204C93.0524 25.1371 91.7186 26.0228 91.7186 27.7938C91.7186 28.5987 92.024 29.2429 92.6346 29.7259C93.2453 30.2089 94.0811 30.4505 95.1418 30.4505ZM131.058 9.19714C133.437 9.19714 135.591 9.76067 137.519 10.8877C139.48 11.9826 141.023 13.5605 142.148 15.6214C143.305 17.6502 143.884 20.017 143.884 22.722C143.884 25.4269 143.305 27.81 142.148 29.8708C141.023 31.8995 139.48 33.4773 137.519 34.6045C135.591 35.6993 133.437 36.2468 131.058 36.2468C128.005 36.2468 125.578 35.3291 123.778 33.4935V45.1829H114.617V9.63187H123.344V12.2402C125.048 10.2115 127.619 9.19714 131.058 9.19714ZM129.13 28.9531C130.737 28.9531 132.055 28.4055 133.083 27.3108C134.112 26.1836 134.626 24.6541 134.626 22.722C134.626 20.7899 134.112 19.2764 133.083 18.1815C132.055 17.0544 130.737 16.4909 129.13 16.4909C127.523 16.4909 126.205 17.0544 125.176 18.1815C124.147 19.2764 123.633 20.7899 123.633 22.722C123.633 24.6541 124.147 26.1836 125.176 27.3108C126.205 28.4055 127.523 28.9531 129.13 28.9531ZM164.583 9.19714C166.962 9.19714 169.115 9.76067 171.044 10.8877C173.004 11.9826 174.547 13.5605 175.672 15.6214C176.829 17.6502 177.408 20.017 177.408 22.722C177.408 25.4269 176.829 27.81 175.672 29.8708C174.547 31.8995 173.004 33.4773 171.044 34.6045C169.115 35.6993 166.962 36.2468 164.583 36.2468C161.529 36.2468 159.103 35.3291 157.302 33.4935V45.1829H148.142V9.63187H156.868V12.2402C158.572 10.2115 161.143 9.19714 164.583 9.19714ZM162.654 28.9531C164.262 28.9531 165.579 28.4055 166.608 27.3108C167.637 26.1836 168.151 24.6541 168.151 22.722C168.151 20.7899 167.637 19.2764 166.608 18.1815C165.579 17.0544 164.262 16.4909 162.654 16.4909C161.047 16.4909 159.729 17.0544 158.701 18.1815C157.672 19.2764 157.158 20.7899 157.158 22.722C157.158 24.6541 157.672 26.1836 158.701 27.3108C159.729 28.4055 161.047 28.9531 162.654 28.9531ZM208.49 9.63187L197.208 36.8748C195.89 40.0948 194.283 42.3492 192.387 43.6372C190.49 44.9576 188.176 45.6176 185.444 45.6176C184.062 45.6176 182.663 45.3923 181.249 44.9414C179.867 44.5228 178.742 43.9591 177.874 43.2508L181.056 36.8265C181.57 37.3095 182.181 37.6797 182.888 37.9374C183.628 38.2272 184.367 38.3721 185.106 38.3721C185.974 38.3721 186.681 38.1952 187.228 37.8408C187.806 37.4865 188.288 36.9231 188.674 36.1502L177.488 9.63187H186.89L193.303 25.6202L199.763 9.63187H208.49Z" fill="white"/>
</g>
<defs>
<filter id="filter0_di_119:29" x="0" y="49.7245" width="247" height="40.2755" filterUnits="userSpaceOnUse" color-interpolation-filters="sRGB">
<feFlood flood-opacity="0" result="BackgroundImageFix"/>
<feColorMatrix in="SourceAlpha" type="matrix" values="0 0 0 0 0 0 0 0 0 0 0 0 0 0 0 0 0 0 127 0" result="hardAlpha"/>
<feOffset/>
<feGaussianBlur stdDeviation="1"/>
<feComposite in2="hardAlpha" operator="out"/>
<feColorMatrix type="matrix" values="0 0 0 0 0 0 0 0 0 0 0 0 0 0 0 0 0 0 0.25 0"/>
<feBlend mode="normal" in2="BackgroundImageFix" result="effect1_dropShadow_119:29"/>
<feBlend mode="normal" in="SourceGraphic" in2="effect1_dropShadow_119:29" result="shape"/>
<feColorMatrix in="SourceAlpha" type="matrix" values="0 0 0 0 0 0 0 0 0 0 0 0 0 0 0 0 0 0 127 0" result="hardAlpha"/>
<feOffset/>
<feGaussianBlur stdDeviation="5.5"/>
<feComposite in2="hardAlpha" operator="arithmetic" k2="-1" k3="1"/>
<feColorMatrix type="matrix" values="0 0 0 0 0 0 0 0 0 0 0 0 0 0 0 0 0 0 0.25 0"/>
<feBlend mode="normal" in2="shape" result="effect2_innerShadow_119:29"/>
</filter>
<filter id="filter1_di_119:29" x="43.9307" y="0" width="166.56" height="47.6176" filterUnits="userSpaceOnUse" color-interpolation-filters="sRGB">
<feFlood flood-opacity="0" result="BackgroundImageFix"/>
<feColorMatrix in="SourceAlpha" type="matrix" values="0 0 0 0 0 0 0 0 0 0 0 0 0 0 0 0 0 0 127 0" result="hardAlpha"/>
<feOffset/>
<feGaussianBlur stdDeviation="1"/>
<feComposite in2="hardAlpha" operator="out"/>
<feColorMatrix type="matrix" values="0 0 0 0 0 0 0 0 0 0 0 0 0 0 0 0 0 0 0.25 0"/>
<feBlend mode="normal" in2="BackgroundImageFix" result="effect1_dropShadow_119:29"/>
<feBlend mode="normal" in="SourceGraphic" in2="effect1_dropShadow_119:29" result="shape"/>
<feColorMatrix in="SourceAlpha" type="matrix" values="0 0 0 0 0 0 0 0 0 0 0 0 0 0 0 0 0 0 127 0" result="hardAlpha"/>
<feOffset/>
<feGaussianBlur stdDeviation="5.5"/>
<feComposite in2="hardAlpha" operator="arithmetic" k2="-1" k3="1"/>
<feColorMatrix type="matrix" values="0 0 0 0 0 0 0 0 0 0 0 0 0 0 0 0 0 0 0.25 0"/>
<feBlend mode="normal" in2="shape" result="effect2_innerShadow_119:29"/>
</filter>
</defs>
</svg>
