<svg width="18" height="18" viewBox="0 0 18 18" fill="none" xmlns="http://www.w3.org/2000/svg">
<path d="M9 0C4.02823 0 0 4.02823 0 9C0 13.9718 4.02823 18 9 18C13.9718 18 18 13.9718 18 9C18 4.02823 13.9718 0 9 0ZM13.4202 6.16573L11.9431 13.1262C11.8343 13.6198 11.5403 13.7395 11.1302 13.5073L8.88024 11.8488L7.79516 12.894C7.6754 13.0137 7.57379 13.1153 7.34153 13.1153L7.50121 10.8254L11.671 7.05847C11.8524 6.89879 11.631 6.80806 11.3915 6.96774L6.23831 10.2121L4.01734 9.51895C3.53468 9.36653 3.52379 9.03629 4.11895 8.80403L12.796 5.45806C13.1988 5.3129 13.5508 5.55605 13.4202 6.16573Z" fill="white"/>
</svg>
