<svg width="21" height="20" viewBox="0 0 21 20" fill="none" xmlns="http://www.w3.org/2000/svg">
<path d="M10.5 0C4.6996 0 0 4.47581 0 10C0 15.5242 4.6996 20 10.5 20C16.3004 20 21 15.5242 21 10C21 4.47581 16.3004 0 10.5 0ZM15.6569 6.85081L13.9337 14.5847C13.8067 15.1331 13.4637 15.2661 12.9853 15.0081L10.3603 13.1653L9.09435 14.3266C8.95464 14.4597 8.83609 14.5726 8.56512 14.5726L8.75141 12.0282L13.6161 7.84274C13.8278 7.66532 13.5696 7.56452 13.2901 7.74194L7.27802 11.3468L4.68689 10.5766C4.12379 10.4073 4.11109 10.0403 4.80544 9.78226L14.9286 6.06452C15.3986 5.90323 15.8093 6.17339 15.6569 6.85081Z" fill="#C8C8C8"/>
</svg>
