<svg width="33" height="33" viewBox="0 0 33 33" fill="none" xmlns="http://www.w3.org/2000/svg">
<path d="M16.5 0C7.38508 0 0 7.38508 0 16.5C0 25.6149 7.38508 33 16.5 33C25.6149 33 33 25.6149 33 16.5C33 7.38508 25.6149 0 16.5 0ZM24.6036 11.3038L21.8958 24.0647C21.6962 24.9696 21.1573 25.1891 20.4054 24.7633L16.2804 21.7228L14.2911 23.6389C14.0716 23.8585 13.8853 24.0448 13.4595 24.0448L13.7522 19.8466L21.3968 12.9405C21.7294 12.6478 21.3236 12.4815 20.8845 12.7742L11.4369 18.7222L7.36512 17.4514C6.48024 17.172 6.46028 16.5665 7.55141 16.1407L23.4593 10.0065C24.1978 9.74032 24.8431 10.1861 24.6036 11.3038Z" fill="#C8C8C8"/>
</svg>
