<svg width="21" height="13" viewBox="0 0 21 13" fill="none" xmlns="http://www.w3.org/2000/svg">
<path d="M20.5214 0.881562C20.6656 0.37375 20.5214 0 19.8275 0H17.5313C16.9465 0 16.6775 0.320937 16.5333 0.678437C16.5333 0.678437 15.3638 3.64812 13.7108 5.57375C13.1767 6.13031 12.9311 6.30906 12.6387 6.30906C12.4945 6.30906 12.2723 6.13031 12.2723 5.6225V0.881562C12.2723 0.272187 12.1086 0 11.6252 0H8.0152C7.64874 0 7.43043 0.284375 7.43043 0.548437C7.43043 1.12531 8.2569 1.25937 8.34267 2.88437V6.41062C8.34267 7.1825 8.21012 7.32469 7.91774 7.32469C7.13805 7.32469 5.2434 4.34281 4.12065 0.930313C3.89454 0.268125 3.67233 0 3.08367 0H0.787485C0.132547 0 0 0.320937 0 0.678437C0 1.31219 0.779688 4.46063 3.62945 8.62063C5.52799 11.4603 8.20232 13 10.6349 13C12.0969 13 12.2762 12.6587 12.2762 12.0697C12.2762 9.35594 12.1436 9.1 12.8766 9.1C13.2157 9.1 13.8005 9.27875 15.1649 10.6478C16.7243 12.2728 16.9816 13 17.8549 13H20.151C20.806 13 21.1374 12.6587 20.9463 11.9844C20.5097 10.5666 17.5586 7.64969 17.426 7.45469C17.0869 6.99969 17.1843 6.79656 17.426 6.39031C17.4299 6.38625 20.2329 2.275 20.5214 0.881562Z" fill="white"/>
</svg>
