<svg width="23" height="15" viewBox="0 0 23 15" fill="none" xmlns="http://www.w3.org/2000/svg">
<path d="M22.4758 1.01719C22.6338 0.43125 22.4758 0 21.7158 0H19.2009C18.5605 0 18.2659 0.370312 18.1079 0.782812C18.1079 0.782812 16.827 4.20937 15.0166 6.43125C14.4317 7.07344 14.1627 7.27969 13.8424 7.27969C13.6845 7.27969 13.4411 7.07344 13.4411 6.4875V1.01719C13.4411 0.314062 13.2618 0 12.7323 0H8.77855C8.37719 0 8.13809 0.328125 8.13809 0.632812C8.13809 1.29844 9.04327 1.45312 9.13721 3.32812V7.39688C9.13721 8.2875 8.99203 8.45156 8.67181 8.45156C7.81786 8.45156 5.74278 5.01094 4.5131 1.07344C4.26545 0.309375 4.02208 0 3.37735 0H0.862484C0.145171 0 0 0.370312 0 0.782812C0 1.51406 0.853944 5.14688 3.97511 9.94688C6.05447 13.2234 8.98349 15 11.6478 15C13.2489 15 13.4454 14.6063 13.4454 13.9266C13.4454 10.7953 13.3002 10.5 14.1029 10.5C14.4744 10.5 15.1148 10.7063 16.6092 12.2859C18.3171 14.1609 18.5989 15 19.5553 15H22.0702C22.7875 15 23.1504 14.6063 22.9412 13.8281C22.463 12.1922 19.2308 8.82656 19.0857 8.60156C18.7142 8.07656 18.8209 7.84219 19.0857 7.37344C19.0899 7.36875 22.1599 2.625 22.4758 1.01719V1.01719Z" fill="#C8C8C8"/>
</svg>
