<svg width="37" height="23" viewBox="0 0 37 23" fill="none" xmlns="http://www.w3.org/2000/svg">
<path d="M36.1568 1.55969C36.4109 0.66125 36.1568 0 34.9341 0H30.8885C29.8582 0 29.3842 0.567812 29.1301 1.20031C29.1301 1.20031 27.0695 6.45437 24.1572 9.86125C23.2161 10.8459 22.7834 11.1622 22.2683 11.1622C22.0141 11.1622 21.6226 10.8459 21.6226 9.9475V1.55969C21.6226 0.481562 21.3341 0 20.4824 0H14.122C13.4764 0 13.0917 0.503125 13.0917 0.970312C13.0917 1.99094 14.5479 2.22812 14.699 5.10312V11.3419C14.699 12.7075 14.4654 12.9591 13.9503 12.9591C12.5766 12.9591 9.23838 7.68344 7.2602 1.64594C6.86182 0.474375 6.4703 0 5.43313 0H1.38747C0.233535 0 0 0.567812 0 1.20031C0 2.32156 1.37374 7.89188 6.39474 15.2519C9.73979 20.2759 14.4517 23 18.7378 23C21.3135 23 21.6295 22.3962 21.6295 21.3541C21.6295 16.5528 21.3959 16.1 22.6873 16.1C23.2848 16.1 24.3151 16.4163 26.7192 18.8384C29.4667 21.7134 29.92 23 31.4586 23H35.5042C36.6582 23 37.242 22.3962 36.9054 21.2031C36.1361 18.6947 30.9366 13.5341 30.703 13.1891C30.1054 12.3841 30.2772 12.0247 30.703 11.3059C30.7099 11.2987 35.6485 4.025 36.1568 1.55969V1.55969Z" fill="#C8C8C8"/>
</svg>
