<svg width="28" height="17" viewBox="0 0 28 17" fill="none" xmlns="http://www.w3.org/2000/svg">
<path d="M27.3619 1.15281C27.5542 0.48875 27.3619 0 26.4366 0H23.3751C22.5954 0 22.2367 0.419687 22.0444 0.887187C22.0444 0.887187 20.485 4.77063 18.2811 7.28875C17.569 8.01656 17.2415 8.25031 16.8517 8.25031C16.6593 8.25031 16.3631 8.01656 16.3631 7.3525V1.15281C16.3631 0.355937 16.1447 0 15.5002 0H10.6869C10.1983 0 9.90724 0.371875 9.90724 0.717188C9.90724 1.47156 11.0092 1.64688 11.1236 3.77188V8.38313C11.1236 9.3925 10.9468 9.57844 10.557 9.57844C9.5174 9.57844 6.99121 5.67906 5.4942 1.21656C5.19272 0.350625 4.89644 0 4.11156 0H1.04998C0.176729 0 0 0.419687 0 0.887187C0 1.71594 1.03958 5.83313 4.83927 11.2731C7.37065 14.9866 10.9364 17 14.1799 17C16.1292 17 16.3683 16.5538 16.3683 15.7834C16.3683 12.2347 16.1915 11.9 17.1687 11.9C17.621 11.9 18.4006 12.1338 20.2199 13.9241C22.2991 16.0491 22.6422 17 23.8065 17H26.8681C27.7413 17 28.1831 16.5538 27.9284 15.6719C27.3463 13.8178 23.4114 10.0034 23.2347 9.74844C22.7825 9.15344 22.9124 8.88781 23.2347 8.35656C23.2399 8.35125 26.9772 2.975 27.3619 1.15281Z" fill="white" style="mix-blend-mode:overlay"/>
</svg>
