<svg width="134" height="20" viewBox="0 0 134 20" fill="none" xmlns="http://www.w3.org/2000/svg">
<path d="M124.178 0.695242L126.863 5.86702L132.872 6.69864C133.951 6.84692 134.383 8.10838 133.601 8.83102L129.254 12.8192L130.283 18.5027C130.468 19.5304 129.329 20.2956 128.374 19.8191L123 17.1715L117.627 19.855C116.671 20.3316 115.534 19.566 115.718 18.5386L116.747 12.8552L112.399 8.8318C111.618 8.10916 112.049 6.84786 113.127 6.69942L119.136 5.8678L121.822 0.696023C122.306 -0.23767 123.698 -0.226069 124.178 0.695242Z" fill="#68FFE4" style="mix-blend-mode:overlay"/>
<path d="M96.6243 0.695242L99.1878 5.86702L104.924 6.69864C105.953 6.84692 106.365 8.10838 105.619 8.83102L101.47 12.8192L102.451 18.5027C102.628 19.5304 101.541 20.2956 100.63 19.8191L95.4999 17.1715L90.3713 19.855C89.4584 20.3316 88.3732 19.566 88.5495 18.5386L89.5309 12.8552L85.3806 8.8318C84.6351 8.10916 85.047 6.84786 86.0761 6.69942L91.8119 5.8678L94.3754 0.696023C94.8378 -0.23767 96.1659 -0.226069 96.6243 0.695242Z" fill="#68FFE4" style="mix-blend-mode:overlay"/>
<path d="M68.6243 0.695242L71.1878 5.86702L76.9237 6.69864C77.953 6.84692 78.3651 8.10838 77.6191 8.83102L73.47 12.8192L74.4515 18.5027C74.6281 19.5304 73.5414 20.2956 72.63 19.8191L67.4999 17.1715L62.3713 19.855C61.4584 20.3316 60.3732 19.566 60.5495 18.5386L61.5309 12.8552L57.3806 8.8318C56.6351 8.10916 57.047 6.84786 58.0761 6.69942L63.8119 5.8678L66.3754 0.696023C66.8378 -0.23767 68.1659 -0.226069 68.6243 0.695242Z" fill="#68FFE4" style="mix-blend-mode:overlay"/>
<path d="M39.6243 0.695242L42.1878 5.86702L47.9237 6.69864C48.953 6.84692 49.3651 8.10838 48.6191 8.83102L44.47 12.8192L45.4515 18.5027C45.6281 19.5304 44.5414 20.2956 43.63 19.8191L38.4999 17.1715L33.3713 19.855C32.4584 20.3316 31.3732 19.566 31.5495 18.5386L32.5309 12.8552L28.3806 8.8318C27.6351 8.10916 28.047 6.84786 29.0761 6.69942L34.8119 5.8678L37.3754 0.696023C37.8378 -0.23767 39.1659 -0.226069 39.6243 0.695242Z" fill="#68FFE4" style="mix-blend-mode:overlay"/>
<path d="M11.6243 0.695242L14.1878 5.86702L19.9237 6.69864C20.953 6.84692 21.3651 8.10838 20.6191 8.83102L16.47 12.8192L17.4515 18.5027C17.6281 19.5304 16.5414 20.2956 15.63 19.8191L10.4999 17.1715L5.37131 19.855C4.45844 20.3316 3.37317 19.566 3.54947 18.5386L4.53092 12.8552L0.380646 8.8318C-0.364938 8.10916 0.0469941 6.84786 1.07608 6.69942L6.81194 5.8678L9.37545 0.696023C9.83776 -0.23767 11.1659 -0.226069 11.6243 0.695242Z" fill="#68FFE4" style="mix-blend-mode:overlay"/>
</svg>
